<?xml version="1.0" encoding="UTF-8" standalone="no"?>
<!DOCTYPE svg PUBLIC "-//W3C//DTD SVG 1.1//EN"
 "http://www.w3.org/Graphics/SVG/1.1/DTD/svg11.dtd">
<!-- Generated by graphviz version 2.38.0 (20140413.2041)
 -->
<!-- Title: models_diagram Pages: 1 -->
<svg width="656pt" height="258pt"
 viewBox="0.00 0.00 656.34 258.00" xmlns="http://www.w3.org/2000/svg" xmlns:xlink="http://www.w3.org/1999/xlink">
<g id="graph0" class="graph" transform="scale(1 1) rotate(0) translate(4 254)">
<title>models_diagram</title>
<polygon fill="none" stroke="none" points="-4,4 -4,-254 652.343,-254 652.343,4 -4,4"/>
<!-- _diagram_info -->
<g id="node1" class="node"><title>_diagram_info</title>
<text text-anchor="start" x="8" y="-221.1" font-family="Times,serif" font-size="13.00">Models diagram</text>
<text text-anchor="start" x="8" y="-207.1" font-family="Times,serif" font-size="13.00">Date: Aug 28 2017 &#45; 16:52</text>
<text text-anchor="start" x="8" y="-193.1" font-family="Times,serif" font-size="13.00">Migration version: 20170828194733</text>
<text text-anchor="start" x="8" y="-179.1" font-family="Times,serif" font-size="13.00">Generated by RailRoady 1.5.3</text>
<text text-anchor="start" x="8" y="-165.1" font-family="Times,serif" font-size="13.00">http://railroady.prestonlee.com</text>
</g>
<!-- Tweet -->
<g id="node2" class="node"><title>Tweet</title>
<path fill="none" stroke="black" d="M244,-0.5C244,-0.5 464,-0.5 464,-0.5 470,-0.5 476,-6.5 476,-12.5 476,-12.5 476,-94.5 476,-94.5 476,-100.5 470,-106.5 464,-106.5 464,-106.5 244,-106.5 244,-106.5 238,-106.5 232,-100.5 232,-94.5 232,-94.5 232,-12.5 232,-12.5 232,-6.5 238,-0.5 244,-0.5"/>
<text text-anchor="middle" x="354" y="-91.3" font-family="Times,serif" font-size="14.00">Tweet</text>
<polyline fill="none" stroke="black" points="232,-83.5 476,-83.5 "/>
<text text-anchor="start" x="240" y="-68.3" font-family="Times,serif" font-size="14.00">id :bigint</text>
<text text-anchor="start" x="240" y="-53.3" font-family="Times,serif" font-size="14.00">content :text</text>
<text text-anchor="start" x="240" y="-38.3" font-family="Times,serif" font-size="14.00">user_id :bigint</text>
<text text-anchor="start" x="240" y="-23.3" font-family="Times,serif" font-size="14.00">created_at :timestamp without time zone</text>
<text text-anchor="start" x="240" y="-8.3" font-family="Times,serif" font-size="14.00">updated_at :timestamp without time zone</text>
</g>
<!-- User -->
<g id="node3" class="node"><title>User</title>
<path fill="none" stroke="black" d="M244,-143.5C244,-143.5 464,-143.5 464,-143.5 470,-143.5 476,-149.5 476,-155.5 476,-155.5 476,-237.5 476,-237.5 476,-243.5 470,-249.5 464,-249.5 464,-249.5 244,-249.5 244,-249.5 238,-249.5 232,-243.5 232,-237.5 232,-237.5 232,-155.5 232,-155.5 232,-149.5 238,-143.5 244,-143.5"/>
<text text-anchor="middle" x="354" y="-234.3" font-family="Times,serif" font-size="14.00">User</text>
<polyline fill="none" stroke="black" points="232,-226.5 476,-226.5 "/>
<text text-anchor="start" x="240" y="-211.3" font-family="Times,serif" font-size="14.00">id :bigint</text>
<text text-anchor="start" x="240" y="-196.3" font-family="Times,serif" font-size="14.00">name :character varying</text>
<text text-anchor="start" x="240" y="-181.3" font-family="Times,serif" font-size="14.00">email :character varying</text>
<text text-anchor="start" x="240" y="-166.3" font-family="Times,serif" font-size="14.00">created_at :timestamp without time zone</text>
<text text-anchor="start" x="240" y="-151.3" font-family="Times,serif" font-size="14.00">updated_at :timestamp without time zone</text>
</g>
<!-- User&#45;&gt;Tweet -->
<g id="edge1" class="edge"><title>User&#45;&gt;Tweet</title>
<path fill="none" stroke="#fb6fbb" d="M354,-135.194C354,-129.154 354,-123.013 354,-116.952"/>
<ellipse fill="none" stroke="#fb6fbb" cx="354" cy="-139.397" rx="4" ry="4"/>
<polygon fill="#fb6fbb" stroke="#fb6fbb" points="354,-116.859 358.5,-106.859 354,-111.859 354,-106.859 354,-106.859 354,-106.859 354,-111.859 349.5,-106.859 354,-116.859 354,-116.859"/>
</g>
<!-- ApplicationRecord -->
<g id="node4" class="node"><title>ApplicationRecord</title>
<ellipse fill="none" stroke="black" cx="571" cy="-196.5" rx="77.1866" ry="18"/>
<text text-anchor="middle" x="571" y="-192.8" font-family="Times,serif" font-size="14.00">ApplicationRecord</text>
</g>
</g>
</svg>
