<?xml version="1.0" encoding="UTF-8" standalone="no"?>
<!DOCTYPE svg PUBLIC "-//W3C//DTD SVG 1.1//EN"
 "http://www.w3.org/Graphics/SVG/1.1/DTD/svg11.dtd">
<!-- Generated by graphviz version 2.38.0 (20140413.2041)
 -->
<!-- Title: models_diagram Pages: 1 -->
<svg width="467pt" height="158pt"
 viewBox="0.00 0.00 467.34 158.00" xmlns="http://www.w3.org/2000/svg" xmlns:xlink="http://www.w3.org/1999/xlink">
<g id="graph0" class="graph" transform="scale(1 1) rotate(0) translate(4 154)">
<title>models_diagram</title>
<polygon fill="none" stroke="none" points="-4,4 -4,-154 463.343,-154 463.343,4 -4,4"/>
<!-- _diagram_info -->
<g id="node1" class="node"><title>_diagram_info</title>
<text text-anchor="start" x="8" y="-135.6" font-family="Times,serif" font-size="13.00">Models diagram</text>
<text text-anchor="start" x="8" y="-121.6" font-family="Times,serif" font-size="13.00">Date: Aug 28 2017 &#45; 16:35</text>
<text text-anchor="start" x="8" y="-107.6" font-family="Times,serif" font-size="13.00">Migration version: 20170828181316</text>
<text text-anchor="start" x="8" y="-93.6" font-family="Times,serif" font-size="13.00">Generated by RailRoady 1.5.3</text>
<text text-anchor="start" x="8" y="-79.6" font-family="Times,serif" font-size="13.00">http://railroady.prestonlee.com</text>
</g>
<!-- User -->
<g id="node2" class="node"><title>User</title>
<ellipse fill="none" stroke="black" cx="259" cy="-111" rx="27.0966" ry="18"/>
<text text-anchor="middle" x="259" y="-107.3" font-family="Times,serif" font-size="14.00">User</text>
</g>
<!-- Photo -->
<g id="node3" class="node"><title>Photo</title>
<ellipse fill="none" stroke="black" cx="259" cy="-18" rx="31.3957" ry="18"/>
<text text-anchor="middle" x="259" y="-14.3" font-family="Times,serif" font-size="14.00">Photo</text>
</g>
<!-- User&#45;&gt;Photo -->
<g id="edge1" class="edge"><title>User&#45;&gt;Photo</title>
<path fill="none" stroke="#1a7fd9" d="M259,-84.7285C259,-72.7246 259,-58.3622 259,-46.1291"/>
<ellipse fill="none" stroke="#1a7fd9" cx="259" cy="-88.8836" rx="4" ry="4"/>
<polygon fill="#1a7fd9" stroke="#1a7fd9" points="259,-46.0397 263.5,-36.0396 259,-41.0397 259,-36.0397 259,-36.0397 259,-36.0397 259,-41.0397 254.5,-36.0397 259,-46.0397 259,-46.0397"/>
</g>
<!-- ApplicationRecord -->
<g id="node4" class="node"><title>ApplicationRecord</title>
<ellipse fill="none" stroke="black" cx="382" cy="-111" rx="77.1866" ry="18"/>
<text text-anchor="middle" x="382" y="-107.3" font-family="Times,serif" font-size="14.00">ApplicationRecord</text>
</g>
</g>
</svg>
